<svg id="Capa_1" enable-background="new 0 0 512 512" height="512" viewBox="0 0 512 512" width="512" xmlns="http://www.w3.org/2000/svg"><g><path d="m407.935 0v56.3c0 5.69-4.612 10.302-10.302 10.302h-283.266c-5.69 0-10.302-4.612-10.302-10.302v-56.3h-93.763c-5.69 0-10.302 4.612-10.302 10.302v491.396c0 5.69 4.612 10.302 10.302 10.302h93.763v-56.3c0-5.69 4.612-10.302 10.302-10.302h283.266c5.69 0 10.302 4.612 10.302 10.302v56.3h93.763c5.69 0 10.302-4.612 10.302-10.302v-491.396c0-5.69-4.612-10.302-10.302-10.302zm-10.302 412.098h-283.266c-5.69 0-10.302-4.612-10.302-10.302v-291.592c0-5.69 4.612-10.302 10.302-10.302h283.266c5.69 0 10.302 4.612 10.302 10.302v291.591c0 5.69-4.612 10.303-10.302 10.303z" fill="#3d4fc3"/><g fill="#3342aa"><path d="m115.224 99.902h-22.606c-5.747 0-10.407 4.659-10.407 10.407v291.382c0 5.747 4.659 10.406 10.407 10.406h22.606z"/><path d="m121.488 66.602v-66.602h-39.277v56.195c0 5.747 4.659 10.407 10.407 10.407z"/><path d="m490.146 0v512h11.552c5.69 0 10.302-4.612 10.302-10.302v-491.396c0-5.69-4.612-10.302-10.302-10.302z"/><path d="m82.211 512h33.095v-66.602h-22.688c-5.747 0-10.407 4.659-10.407 10.406z"/></g><path d="m104.065 401.796v-291.592c0-5.69 4.612-10.302 10.302-10.302h283.266c5.69 0 10.302 4.612 10.302 10.302v291.591c0 5.69-4.612 10.302-10.302 10.302h-283.266c-5.69.001-10.302-4.612-10.302-10.301z" fill="#f4fbff"/><path d="m382.959 412.098v-312.196h14.674c5.69 0 10.302 4.612 10.302 10.302v291.591c0 5.69-4.612 10.302-10.302 10.302h-14.674z" fill="#e4f6ff"/><path d="m104.065 56.3v-56.3h303.87v56.3c0 5.69-4.612 10.302-10.302 10.302h-283.266c-5.69 0-10.302-4.613-10.302-10.302z" fill="#f4fbff"/><path d="m382.959 66.602v-66.602h24.976v56.3c0 5.69-4.612 10.302-10.302 10.302z" fill="#e4f6ff"/><path d="m104.065 455.7v56.3h303.87v-56.3c0-5.69-4.612-10.302-10.302-10.302h-283.266c-5.69 0-10.302 4.613-10.302 10.302z" fill="#f4fbff"/><path d="m382.959 445.398v66.602h24.976v-56.3c0-5.69-4.612-10.302-10.302-10.302z" fill="#e4f6ff"/><g fill="#f4fbff"><path d="m60.462 72.846h-16.86c-5.69 0-10.302-4.612-10.302-10.302v-12.697c0-5.69 4.612-10.302 10.302-10.302h16.86c5.69 0 10.302 4.612 10.302 10.302v12.697c0 5.689-4.612 10.302-10.302 10.302z"/><path d="m60.462 172.748h-16.86c-5.69 0-10.302-4.612-10.302-10.302v-12.697c0-5.69 4.612-10.302 10.302-10.302h16.86c5.69 0 10.302 4.612 10.302 10.302v12.697c0 5.69-4.612 10.302-10.302 10.302z"/><path d="m60.462 272.65h-16.86c-5.69 0-10.302-4.612-10.302-10.302v-12.697c0-5.69 4.612-10.302 10.302-10.302h16.86c5.69 0 10.302 4.612 10.302 10.302v12.697c0 5.69-4.612 10.302-10.302 10.302z"/><path d="m60.462 372.553h-16.86c-5.69 0-10.302-4.612-10.302-10.302v-12.697c0-5.69 4.612-10.302 10.302-10.302h16.86c5.69 0 10.302 4.612 10.302 10.302v12.697c0 5.69-4.612 10.302-10.302 10.302z"/><path d="m60.462 472.455h-16.86c-5.69 0-10.302-4.612-10.302-10.302v-12.697c0-5.69 4.612-10.302 10.302-10.302h16.86c5.69 0 10.302 4.612 10.302 10.302v12.697c0 5.69-4.612 10.302-10.302 10.302z"/></g><g fill="#f4fbff"><path d="m468.397 72.846h-16.86c-5.69 0-10.302-4.612-10.302-10.302v-12.697c0-5.69 4.612-10.302 10.302-10.302h16.86c5.69 0 10.302 4.612 10.302 10.302v12.697c0 5.689-4.612 10.302-10.302 10.302z"/><path d="m468.397 172.748h-16.86c-5.69 0-10.302-4.612-10.302-10.302v-12.697c0-5.69 4.612-10.302 10.302-10.302h16.86c5.69 0 10.302 4.612 10.302 10.302v12.697c0 5.69-4.612 10.302-10.302 10.302z"/><path d="m468.397 272.65h-16.86c-5.69 0-10.302-4.612-10.302-10.302v-12.697c0-5.69 4.612-10.302 10.302-10.302h16.86c5.69 0 10.302 4.612 10.302 10.302v12.697c0 5.69-4.612 10.302-10.302 10.302z"/><path d="m468.397 372.553h-16.86c-5.69 0-10.302-4.612-10.302-10.302v-12.697c0-5.69 4.612-10.302 10.302-10.302h16.86c5.69 0 10.302 4.612 10.302 10.302v12.697c0 5.69-4.612 10.302-10.302 10.302z"/><path d="m468.397 472.455h-16.86c-5.69 0-10.302-4.612-10.302-10.302v-12.697c0-5.69 4.612-10.302 10.302-10.302h16.86c5.69 0 10.302 4.612 10.302 10.302v12.697c0 5.69-4.612 10.302-10.302 10.302z"/></g><path d="m183.154 327.602v-143.204c0-10.243 11.174-16.569 19.957-11.299l119.337 71.602c8.53 5.118 8.53 17.481 0 22.599l-119.337 71.602c-8.783 5.269-19.957-1.057-19.957-11.3z" fill="#dd5790"/><path d="m322.448 244.701-39.724-23.834c-11.037 14.697-26.112 28.192-44.447 38.778-18.108 10.454-37.079 16.722-55.123 19.005v48.953c0 10.242 11.174 16.569 19.957 11.299l119.337-71.602c8.53-5.119 8.53-17.481 0-22.599z" fill="#da387d"/></g></svg>